<svg xmlns="http://www.w3.org/2000/svg" xmlns:xlink="http://www.w3.org/1999/xlink" width="500" zoomAndPan="magnify" viewBox="0 0 375 374.999991" height="500" preserveAspectRatio="xMidYMid meet" version="1.0"><defs><clipPath id="e821258136"><path d="M 187.496094 0 L 375.234375 187.738281 L 187.496094 375.476562 L -0.238281 187.738281 Z M 187.496094 0 " clip-rule="nonzero"/></clipPath><clipPath id="85108e6c09"><path d="M 187.496094 0 L 375.234375 187.738281 L 187.496094 375.476562 L -0.238281 187.738281 Z M 187.496094 0 " clip-rule="nonzero"/></clipPath></defs><g clip-path="url(#e821258136)"><g clip-path="url(#85108e6c09)"><path fill="#000000" d="M 187.496094 155.023438 L 219.972656 187.496094 L 187.496094 219.972656 L 155.023438 187.496094 Z M 140.097656 187.496094 L 187.496094 234.894531 L 234.894531 187.496094 L 187.496094 140.097656 Z M 282.40625 192.484375 L 354.820312 192.746094 L 282.410156 265.160156 Z M 193.046875 278.246094 L 269.285156 278.285156 L 192.785156 354.78125 Z M 182.511719 278.28125 L 182.285156 354.855469 L 105.671875 278.246094 Z M 92.886719 192.484375 L 92.886719 265.460938 L 20.175781 192.746094 Z M 92.886719 181.910156 L 20.25 182.171875 L 92.886719 109.535156 Z M 182.511719 96.410156 L 106.011719 96.410156 L 182.246094 20.175781 Z M 193.085938 96.414062 L 192.824219 20.25 L 268.984375 96.410156 Z M 282.410156 109.835938 L 354.746094 182.171875 L 282.445312 181.949219 Z M 205.421875 260.398438 L 262.796875 260.398438 L 262.796875 203.023438 L 271.871094 193.949219 L 271.871094 267.667969 L 198.148438 267.671875 Z M 111.863281 202.382812 L 111.863281 260.359375 L 169.835938 260.359375 L 177.148438 267.671875 L 103.460938 267.707031 L 103.460938 193.984375 Z M 168.636719 115.535156 L 111.863281 115.535156 L 111.859375 172.308594 L 103.421875 180.746094 L 103.425781 107.023438 L 177.148438 107.023438 Z M 262.796875 171.671875 L 262.796875 115.574219 L 206.695312 115.574219 L 198.148438 107.023438 L 271.871094 107.023438 L 271.871094 180.746094 Z M 252.222656 213.597656 L 252.21875 249.820312 L 215.996094 249.824219 Z M 217.195312 126.074219 L 252.21875 126.074219 L 252.222656 161.097656 Z M 122.4375 161.734375 L 122.4375 126.109375 L 158.0625 126.109375 Z M 159.335938 249.859375 L 122.4375 249.859375 L 122.4375 212.960938 Z M 111.75 187.347656 L 187.648438 111.449219 L 263.546875 187.347656 L 187.648438 263.246094 Z M 187.496094 0 L 0 187.496094 L 187.496094 374.992188 L 374.992188 187.496094 L 187.496094 0 " fill-opacity="1" fill-rule="nonzero"/></g></g></svg>