<svg xmlns="http://www.w3.org/2000/svg" xmlns:xlink="http://www.w3.org/1999/xlink" width="500" zoomAndPan="magnify" viewBox="0 0 375 74.999997" height="100" preserveAspectRatio="xMidYMid meet" version="1.0"><defs><clipPath id="d50bf0668f"><path d="M 142.5 24.84375 L 232.5 24.84375 L 232.5 56.433594 L 142.5 56.433594 Z M 142.5 24.84375 " clip-rule="nonzero"/></clipPath><clipPath id="2b9a70a471"><path d="M 181 17.34375 L 194 17.34375 L 194 35 L 181 35 Z M 181 17.34375 " clip-rule="nonzero"/></clipPath></defs><path fill="#d4af37" d="M 263.054688 50.570312 C 260.105469 53.519531 256.082031 55.261719 251.945312 55.839844 C 247.835938 56.417969 243.261719 55.738281 240.339844 52.792969 C 237.964844 50.398438 236.804688 46.710938 236.996094 43.386719 C 237.140625 40.828125 238.625 38.328125 240.746094 36.800781 C 244.609375 33.90625 249.746094 33.007812 254.464844 32.816406 C 259.972656 32.59375 265.554688 32.886719 271.070312 32.953125 C 276.382812 33.015625 281.785156 33.078125 287.183594 33.144531 C 330.378906 33.617188 373.570312 34.089844 373.570312 34.089844 L 373.570312 34.359375 C 373.570312 34.359375 330.378906 34.832031 287.183594 35.300781 C 281.785156 35.367188 276.382812 35.429688 271.070312 35.492188 C 263.195312 35.640625 234.699219 32.617188 239.863281 47.925781 C 243.144531 57.660156 256.578125 55.09375 263.054688 50.570312 " fill-opacity="1" fill-rule="nonzero"/><path fill="#d4af37" d="M 111.945312 50.570312 C 114.890625 53.519531 118.921875 55.261719 123.054688 55.839844 C 127.160156 56.417969 131.734375 55.738281 134.65625 52.792969 C 137.03125 50.398438 138.191406 46.710938 138 43.386719 C 137.855469 40.828125 136.375 38.328125 134.253906 36.800781 C 130.386719 33.90625 125.253906 33.007812 120.535156 32.816406 C 115.027344 32.59375 109.445312 32.886719 103.929688 32.953125 C 98.613281 33.015625 93.214844 33.078125 87.816406 33.144531 C 44.621094 33.617188 1.429688 34.089844 1.429688 34.089844 L 1.429688 34.359375 C 1.429688 34.359375 44.621094 34.832031 87.816406 35.300781 C 93.214844 35.367188 98.613281 35.429688 103.929688 35.492188 C 111.804688 35.640625 140.300781 32.617188 135.136719 47.925781 C 131.851562 57.660156 118.421875 55.09375 111.945312 50.570312 " fill-opacity="1" fill-rule="nonzero"/><g clip-path="url(#d50bf0668f)"><path fill="#d4af37" d="M 187.5 42.007812 C 187.5 42.007812 188.488281 40.730469 188.519531 40.695312 C 192.898438 35.019531 198.835938 29.789062 205.957031 27.859375 C 213.632812 25.753906 222.167969 28.214844 227.46875 34.199219 C 229.71875 36.738281 231.234375 39.730469 231.136719 43.199219 C 230.921875 50.769531 223.746094 55.558594 216.71875 55.773438 C 212.839844 55.890625 208.984375 54.8125 205.5 53.105469 C 210.027344 55.847656 215.554688 57.167969 220.722656 56.015625 C 225.886719 54.863281 230.539062 51.011719 231.980469 45.917969 C 233.496094 40.550781 231.136719 35.582031 227.453125 31.761719 C 224.667969 28.921875 221.109375 26.871094 217.273438 25.773438 C 215.355469 25.222656 213.363281 24.917969 211.351562 24.878906 C 209.363281 24.832031 207.28125 25.109375 205.414062 25.570312 C 199.570312 26.972656 194.332031 30.304688 190.257812 34.671875 C 189.285156 35.714844 188.363281 36.808594 187.5 37.941406 C 186.636719 36.808594 185.714844 35.714844 184.742188 34.671875 C 180.664062 30.304688 175.425781 26.972656 169.585938 25.570312 C 167.71875 25.109375 165.636719 24.832031 163.644531 24.878906 C 161.636719 24.917969 159.640625 25.222656 157.726562 25.773438 C 153.890625 26.871094 150.332031 28.921875 147.546875 31.761719 C 143.859375 35.582031 141.503906 40.550781 143.019531 45.917969 C 144.457031 51.011719 149.113281 54.863281 154.277344 56.015625 C 159.445312 57.167969 164.972656 55.847656 169.496094 53.105469 C 166.015625 54.8125 162.160156 55.890625 158.28125 55.773438 C 151.253906 55.558594 144.074219 50.769531 143.863281 43.199219 C 143.761719 39.730469 145.277344 36.738281 147.527344 34.199219 C 152.832031 28.214844 161.363281 25.753906 169.042969 27.859375 C 176.160156 29.789062 182.097656 35.019531 186.480469 40.695312 C 186.507812 40.730469 187.5 42.007812 187.5 42.007812 " fill-opacity="1" fill-rule="nonzero"/></g><path fill="#d4af37" d="M 190.707031 28.25 C 193.011719 33.226562 197.179688 37.183594 201.9375 39.910156 C 207.539062 43.125 214.042969 44.96875 220.445312 45.628906 C 221.796875 45.769531 223.171875 45.792969 224.546875 45.886719 C 225.921875 45.867188 227.304688 45.871094 228.6875 45.804688 C 232.175781 45.535156 235.742188 45.039062 239.089844 43.992188 C 242.90625 42.796875 247.039062 40.492188 248.601562 36.585938 C 249.660156 33.925781 248.195312 31.644531 246.109375 30.066406 C 244.015625 28.480469 241.558594 27.398438 239.007812 26.8125 C 236.625 26.273438 235.207031 26.097656 235.207031 26.097656 C 235.207031 26.097656 236.613281 25.972656 239.113281 26.117188 C 240.359375 26.207031 241.886719 26.382812 243.609375 26.890625 C 245.324219 27.40625 247.261719 28.234375 248.863281 29.984375 C 249.710938 30.792969 250.328125 31.964844 250.695312 33.242188 C 250.972656 34.5625 250.820312 35.960938 250.367188 37.246094 C 248.90625 41.402344 244.457031 44.140625 240.511719 45.496094 C 236.800781 46.773438 232.707031 47.5 228.792969 47.691406 C 227.363281 47.757812 225.929688 47.753906 224.503906 47.773438 C 223.082031 47.683594 221.660156 47.652344 220.257812 47.507812 C 217.457031 47.207031 214.714844 46.742188 212.113281 46.050781 C 209.511719 45.367188 207.046875 44.488281 204.800781 43.445312 C 202.542969 42.417969 200.542969 41.164062 198.765625 39.914062 C 194.992188 36.679688 192.28125 33.046875 190.707031 28.25 " fill-opacity="1" fill-rule="nonzero"/><path fill="#d4af37" d="M 184.292969 28.25 C 181.988281 33.226562 177.820312 37.183594 173.0625 39.910156 C 167.457031 43.125 160.953125 44.96875 154.554688 45.628906 C 153.203125 45.769531 151.828125 45.792969 150.453125 45.886719 C 149.074219 45.867188 147.691406 45.871094 146.3125 45.804688 C 142.820312 45.535156 139.253906 45.039062 135.90625 43.992188 C 132.089844 42.796875 127.957031 40.492188 126.398438 36.585938 C 125.335938 33.925781 126.804688 31.644531 128.890625 30.066406 C 130.984375 28.480469 133.4375 27.398438 135.992188 26.8125 C 138.371094 26.273438 139.789062 26.097656 139.789062 26.097656 C 139.789062 26.097656 138.382812 25.972656 135.886719 26.117188 C 134.640625 26.207031 133.109375 26.382812 131.390625 26.890625 C 129.671875 27.40625 127.738281 28.234375 126.132812 29.984375 C 125.285156 30.792969 124.667969 31.964844 124.304688 33.242188 C 124.027344 34.5625 124.179688 35.960938 124.628906 37.246094 C 126.09375 41.402344 130.542969 44.140625 134.488281 45.496094 C 138.195312 46.773438 142.289062 47.5 146.203125 47.691406 C 147.632812 47.757812 149.066406 47.753906 150.496094 47.773438 C 151.914062 47.683594 153.339844 47.652344 154.742188 47.507812 C 157.539062 47.207031 160.285156 46.742188 162.886719 46.050781 C 165.488281 45.367188 167.953125 44.488281 170.195312 43.445312 C 172.457031 42.417969 174.457031 41.164062 176.234375 39.914062 C 180.003906 36.679688 182.714844 33.046875 184.292969 28.25 " fill-opacity="1" fill-rule="nonzero"/><path fill="#d4af37" d="M 194.636719 39.902344 C 194.636719 39.902344 194.765625 40.105469 195.019531 40.484375 C 195.246094 40.882812 195.6875 41.390625 196.230469 42.003906 C 196.816406 42.59375 197.546875 43.28125 198.523438 43.898438 C 199.488281 44.519531 200.617188 45.136719 201.851562 45.832031 C 204.367188 47.148438 207.542969 48.234375 211.023438 49.222656 C 214.503906 50.238281 218.230469 51.070312 222.050781 51.5 C 232.042969 52.621094 242.769531 50.777344 250.863281 44.386719 C 249.363281 45.574219 248.265625 47.246094 246.683594 48.394531 C 246.1875 48.746094 245.660156 49.113281 245.105469 49.507812 C 244.53125 49.878906 243.84375 50.09375 243.179688 50.433594 C 241.8125 51.015625 240.296875 51.578125 238.644531 51.980469 C 237.007812 52.425781 235.238281 52.742188 233.40625 52.9375 C 229.734375 53.351562 225.789062 53.289062 221.894531 52.835938 C 218.011719 52.40625 214.144531 51.535156 210.648438 50.519531 C 205.101562 48.941406 199.304688 47.285156 195.828125 42.324219 C 195.351562 41.585938 195.042969 40.976562 194.890625 40.550781 C 194.726562 40.125 194.636719 39.902344 194.636719 39.902344 " fill-opacity="1" fill-rule="nonzero"/><path fill="#d4af37" d="M 180.363281 39.902344 C 180.363281 39.902344 180.230469 40.105469 179.980469 40.484375 C 179.75 40.882812 179.3125 41.390625 178.769531 42.003906 C 178.183594 42.59375 177.449219 43.28125 176.476562 43.898438 C 175.511719 44.519531 174.378906 45.136719 173.144531 45.832031 C 170.632812 47.148438 167.453125 48.234375 163.972656 49.222656 C 160.496094 50.238281 156.769531 51.070312 152.949219 51.5 C 142.960938 52.621094 132.226562 50.777344 124.136719 44.386719 C 125.632812 45.574219 126.730469 47.246094 128.3125 48.394531 C 128.808594 48.746094 129.335938 49.113281 129.894531 49.507812 C 130.464844 49.878906 131.15625 50.09375 131.820312 50.433594 C 133.183594 51.015625 134.703125 51.578125 136.351562 51.980469 C 137.992188 52.425781 139.757812 52.742188 141.59375 52.9375 C 145.265625 53.351562 149.214844 53.289062 153.105469 52.835938 C 156.988281 52.40625 160.855469 51.535156 164.351562 50.519531 C 169.894531 48.941406 175.691406 47.285156 179.171875 42.324219 C 179.648438 41.585938 179.957031 40.976562 180.105469 40.550781 C 180.273438 40.125 180.363281 39.902344 180.363281 39.902344 " fill-opacity="1" fill-rule="nonzero"/><g clip-path="url(#2b9a70a471)"><path fill="#d4af37" d="M 187.5 34.042969 C 189.640625 31.78125 193.84375 28.570312 193.566406 25.09375 C 193.476562 23.941406 193.015625 23.25 192.128906 22.566406 C 190.074219 20.996094 188.476562 20.082031 187.535156 17.4375 C 187.527344 17.40625 187.511719 17.375 187.5 17.34375 C 187.484375 17.375 187.472656 17.40625 187.464844 17.4375 C 186.519531 20.082031 184.921875 20.996094 182.871094 22.566406 C 181.980469 23.25 181.519531 23.941406 181.429688 25.09375 C 181.15625 28.570312 185.359375 31.78125 187.5 34.042969 " fill-opacity="1" fill-rule="nonzero"/></g><path fill="#d4af37" d="M 375 34.234375 C 373.363281 33.121094 371.042969 30.9375 368.527344 31.082031 C 367.699219 31.125 367.195312 31.367188 366.703125 31.828125 C 365.566406 32.898438 364.90625 33.726562 362.996094 34.21875 C 362.972656 34.222656 362.949219 34.226562 362.929688 34.234375 C 362.949219 34.242188 362.972656 34.246094 362.996094 34.253906 C 364.90625 34.742188 365.566406 35.574219 366.703125 36.640625 C 367.195312 37.101562 367.699219 37.34375 368.527344 37.386719 C 371.042969 37.53125 373.363281 35.347656 375 34.234375 " fill-opacity="1" fill-rule="nonzero"/><path fill="#d4af37" d="M 0 34.234375 C 1.636719 33.121094 3.957031 30.9375 6.472656 31.082031 C 7.300781 31.125 7.804688 31.367188 8.296875 31.828125 C 9.429688 32.898438 10.09375 33.726562 12.003906 34.21875 C 12.027344 34.222656 12.050781 34.226562 12.070312 34.234375 C 12.050781 34.242188 12.027344 34.246094 12.003906 34.253906 C 10.09375 34.742188 9.429688 35.574219 8.296875 36.640625 C 7.804688 37.101562 7.300781 37.34375 6.472656 37.386719 C 3.957031 37.53125 1.636719 35.347656 0 34.234375 " fill-opacity="1" fill-rule="nonzero"/></svg>