<svg xmlns="http://www.w3.org/2000/svg" xmlns:xlink="http://www.w3.org/1999/xlink" width="500" zoomAndPan="magnify" viewBox="0 0 375 74.999997" height="100" preserveAspectRatio="xMidYMid meet" version="1.0"><defs><clipPath id="d68af45b38"><path d="M 188 24 L 206 24 L 206 52.5 L 188 52.5 Z M 188 24 " clip-rule="nonzero"/></clipPath><clipPath id="2aa50a75f2"><path d="M 169 24 L 187 24 L 187 52.5 L 169 52.5 Z M 169 24 " clip-rule="nonzero"/></clipPath><clipPath id="69c7a3b3af"><path d="M 212.234375 22.5 L 225.660156 22.5 L 225.660156 34.222656 L 212.234375 34.222656 Z M 212.234375 22.5 " clip-rule="nonzero"/></clipPath><clipPath id="586b0ccfae"><path d="M 149.238281 22.5 L 162.664062 22.5 L 162.664062 34.222656 L 149.238281 34.222656 Z M 149.238281 22.5 " clip-rule="nonzero"/></clipPath><clipPath id="9320e8aaa9"><path d="M 368.171875 26 L 373.980469 26 L 373.980469 30.605469 L 368.171875 30.605469 Z M 368.171875 26 " clip-rule="nonzero"/></clipPath></defs><path fill="#000000" d="M 187.511719 30.667969 C 187.511719 30.667969 188.683594 32.089844 188.714844 32.128906 C 191.246094 35.175781 194.410156 37.351562 198.175781 38.570312 C 201.933594 39.75 206.097656 39.804688 209.875 38.65625 C 211.800781 38.070312 213.699219 37.175781 215.082031 35.679688 C 216.175781 34.5 216.90625 32.933594 216.878906 31.324219 C 216.859375 30.039062 216.367188 28.792969 215.632812 27.738281 C 213.972656 25.335938 211.019531 23.894531 208.105469 24.0625 C 208.085938 23.933594 208.066406 23.808594 208.046875 23.6875 C 210.425781 23.40625 212.902344 24.125 214.765625 25.628906 C 217.164062 27.566406 218.664062 30.808594 217.625 33.828125 C 217.265625 34.902344 216.679688 35.882812 215.949219 36.722656 C 215.226562 37.574219 214.355469 38.292969 213.386719 38.871094 C 212.390625 39.40625 211.535156 39.847656 210.441406 40.238281 C 209.398438 40.613281 208.367188 40.925781 207.289062 41.109375 C 206.222656 41.34375 205.136719 41.4375 204.050781 41.492188 C 198.574219 41.753906 192.949219 39.898438 188.75 36.359375 C 188.320312 35.996094 187.910156 35.609375 187.511719 35.207031 C 187.117188 35.609375 186.703125 35.996094 186.273438 36.359375 C 182.078125 39.898438 176.453125 41.753906 170.976562 41.492188 C 169.890625 41.4375 168.800781 41.34375 167.734375 41.109375 C 166.65625 40.925781 165.625 40.613281 164.582031 40.238281 C 163.492188 39.847656 162.636719 39.40625 161.636719 38.871094 C 160.667969 38.292969 159.800781 37.574219 159.074219 36.722656 C 158.339844 35.882812 157.761719 34.902344 157.402344 33.828125 C 156.359375 30.808594 157.859375 27.566406 160.261719 25.628906 C 162.121094 24.125 164.601562 23.40625 166.976562 23.6875 C 166.957031 23.808594 166.941406 23.933594 166.917969 24.0625 C 164.007812 23.894531 161.050781 25.335938 159.394531 27.738281 C 158.660156 28.792969 158.164062 30.039062 158.144531 31.324219 C 158.125 32.933594 158.847656 34.5 159.941406 35.679688 C 161.328125 37.175781 163.222656 38.070312 165.148438 38.65625 C 168.929688 39.804688 173.089844 39.75 176.847656 38.570312 C 180.617188 37.351562 183.78125 35.175781 186.308594 32.128906 C 186.339844 32.089844 187.511719 30.667969 187.511719 30.667969 " fill-opacity="1" fill-rule="nonzero"/><g clip-path="url(#d68af45b38)"><path fill="#000000" d="M 188.3125 50.195312 C 188.3125 50.195312 188.925781 50.59375 190.015625 51.21875 C 191.652344 52.148438 193.550781 52.492188 195.398438 52.179688 C 197.703125 51.789062 200.289062 50.449219 202.113281 48.1875 C 203.949219 45.957031 205.117188 42.980469 205.152344 39.886719 C 205.1875 38.300781 204.90625 36.867188 204.480469 35.417969 C 204.046875 34 203.429688 32.660156 202.683594 31.464844 C 201.96875 30.292969 201.050781 29.152344 200.171875 28.296875 C 199.214844 27.359375 198.238281 26.632812 197.265625 26.050781 C 195.355469 24.679688 192.417969 24.464844 190.148438 24.425781 C 190.664062 24.433594 191.5 25.035156 191.960938 25.269531 C 196.414062 27.527344 200.96875 31.058594 202.488281 36.03125 C 202.851562 37.242188 203.105469 38.621094 203.0625 39.867188 C 203.042969 42.4375 202.039062 45.007812 200.503906 46.859375 C 198.976562 48.742188 196.902344 49.796875 195.042969 50.121094 C 193.648438 50.195312 192.261719 50.46875 190.863281 50.46875 C 190.003906 50.46875 189.167969 50.28125 188.3125 50.195312 " fill-opacity="1" fill-rule="nonzero"/></g><g clip-path="url(#2aa50a75f2)"><path fill="#000000" d="M 186.710938 50.195312 C 186.710938 50.195312 186.101562 50.59375 185.007812 51.21875 C 183.375 52.148438 181.472656 52.492188 179.625 52.179688 C 177.324219 51.789062 174.730469 50.449219 172.910156 48.1875 C 171.078125 45.957031 169.90625 42.980469 169.871094 39.886719 C 169.839844 38.300781 170.117188 36.867188 170.542969 35.417969 C 170.980469 34 171.59375 32.660156 172.339844 31.464844 C 173.054688 30.292969 173.976562 29.152344 174.851562 28.296875 C 175.8125 27.359375 176.785156 26.632812 177.761719 26.050781 C 179.667969 24.679688 182.609375 24.464844 184.875 24.425781 C 184.359375 24.433594 183.523438 25.035156 183.0625 25.269531 C 178.609375 27.527344 174.054688 31.058594 172.539062 36.03125 C 172.175781 37.242188 171.917969 38.621094 171.960938 39.867188 C 171.980469 42.4375 172.988281 45.007812 174.519531 46.859375 C 176.046875 48.742188 178.125 49.796875 179.984375 50.121094 C 181.378906 50.195312 182.761719 50.46875 184.164062 50.46875 C 185.019531 50.46875 185.859375 50.28125 186.710938 50.195312 " fill-opacity="1" fill-rule="nonzero"/></g><path fill="#000000" d="M 200.492188 51.140625 C 200.492188 51.140625 200.65625 51.195312 200.96875 51.304688 C 201.277344 51.410156 201.746094 51.558594 202.375 51.667969 C 207.175781 52.460938 210.867188 49.078125 212.394531 44.75 C 213.367188 42.050781 213.644531 38.917969 213.03125 35.90625 C 212.390625 32.925781 210.902344 30.175781 209.0625 28.09375 C 207.671875 26.492188 205.964844 25.105469 204.023438 24.234375 C 201.925781 23.296875 199.875 23.289062 197.644531 23.644531 C 196.425781 23.859375 195.757812 24.070312 195.757812 24.070312 C 195.757812 24.070312 196.4375 24.21875 197.628906 24.464844 C 201.34375 25.234375 204.96875 26.652344 207.527344 29.5625 C 209.144531 31.40625 210.433594 33.78125 210.992188 36.363281 C 211.519531 38.925781 211.273438 41.691406 210.441406 43.980469 C 209.1875 47.515625 205.941406 49.972656 202.359375 50.839844 C 201.21875 51.085938 200.492188 51.140625 200.492188 51.140625 " fill-opacity="1" fill-rule="nonzero"/><path fill="#000000" d="M 174.535156 51.140625 C 174.535156 51.140625 174.367188 51.195312 174.054688 51.304688 C 173.746094 51.410156 173.28125 51.558594 172.652344 51.667969 C 167.847656 52.460938 164.152344 49.078125 162.632812 44.75 C 161.65625 42.050781 161.378906 38.917969 161.992188 35.90625 C 162.632812 32.925781 164.125 30.175781 165.960938 28.09375 C 167.355469 26.492188 169.0625 25.105469 171 24.234375 C 173.097656 23.296875 175.152344 23.289062 177.378906 23.644531 C 178.597656 23.859375 179.269531 24.070312 179.269531 24.070312 C 179.269531 24.070312 178.589844 24.21875 177.398438 24.464844 C 173.679688 25.234375 170.054688 26.652344 167.503906 29.5625 C 165.878906 31.40625 164.589844 33.78125 164.03125 36.363281 C 163.507812 38.925781 163.75 41.691406 164.582031 43.980469 C 165.835938 47.515625 169.082031 49.972656 172.664062 50.839844 C 173.804688 51.085938 174.535156 51.140625 174.535156 51.140625 " fill-opacity="1" fill-rule="nonzero"/><g clip-path="url(#69c7a3b3af)"><path fill="#000000" d="M 225.011719 29.957031 C 225.382812 30.675781 225.675781 31.464844 225.605469 32.273438 C 225.53125 33.078125 225.011719 33.886719 224.226562 34.078125 C 223.402344 34.285156 222.546875 33.765625 222.042969 33.085938 C 221.539062 32.402344 221.296875 31.566406 220.960938 30.785156 C 219.199219 26.648438 217.792969 24.933594 212.625 22.5 C 217.164062 22.21875 222.925781 25.90625 225.011719 29.957031 " fill-opacity="1" fill-rule="nonzero"/></g><g clip-path="url(#586b0ccfae)"><path fill="#000000" d="M 150.015625 29.957031 C 149.640625 30.675781 149.351562 31.464844 149.425781 32.273438 C 149.496094 33.078125 150.015625 33.886719 150.796875 34.078125 C 151.621094 34.285156 152.480469 33.765625 152.980469 33.085938 C 153.484375 32.402344 153.730469 31.566406 154.0625 30.785156 C 155.828125 26.648438 157.230469 24.933594 162.402344 22.5 C 157.859375 22.21875 152.097656 25.90625 150.015625 29.957031 " fill-opacity="1" fill-rule="nonzero"/></g><path fill="#000000" d="M 289.617188 29.601562 C 289.332031 30.164062 289.097656 30.789062 289.15625 31.421875 C 289.210938 32.050781 289.621094 32.6875 290.238281 32.839844 C 290.882812 33.003906 291.554688 32.59375 291.949219 32.0625 C 292.34375 31.523438 292.539062 30.867188 292.796875 30.253906 C 294.1875 27.003906 295.285156 25.65625 299.347656 23.746094 C 295.785156 23.527344 291.257812 26.421875 289.617188 29.601562 " fill-opacity="1" fill-rule="nonzero"/><path fill="#000000" d="M 85.40625 29.601562 C 85.695312 30.164062 85.925781 30.789062 85.871094 31.421875 C 85.8125 32.050781 85.40625 32.6875 84.789062 32.839844 C 84.140625 33.003906 83.464844 32.59375 83.074219 32.0625 C 82.675781 31.523438 82.488281 30.867188 82.226562 30.253906 C 80.839844 27.003906 79.742188 25.65625 75.675781 23.746094 C 79.246094 23.527344 83.769531 26.421875 85.40625 29.601562 " fill-opacity="1" fill-rule="nonzero"/><path fill="#000000" d="M 198.957031 44.644531 C 198.589844 45.367188 198.121094 46.070312 197.429688 46.488281 C 196.734375 46.898438 195.773438 46.957031 195.15625 46.4375 C 194.503906 45.894531 194.417969 44.898438 194.671875 44.085938 C 194.933594 43.277344 195.464844 42.585938 195.898438 41.859375 C 198.210938 38 198.773438 35.855469 197.695312 30.242188 C 200.59375 33.75 201.003906 40.582031 198.957031 44.644531 " fill-opacity="1" fill-rule="nonzero"/><path fill="#000000" d="M 176.074219 44.644531 C 176.4375 45.367188 176.902344 46.070312 177.597656 46.488281 C 178.292969 46.898438 179.25 46.957031 179.867188 46.4375 C 180.519531 45.894531 180.605469 44.898438 180.351562 44.085938 C 180.09375 43.277344 179.558594 42.585938 179.125 41.859375 C 176.816406 38 176.253906 35.855469 177.328125 30.242188 C 174.429688 33.75 174.023438 40.582031 176.074219 44.644531 " fill-opacity="1" fill-rule="nonzero"/><path fill="#000000" d="M 292.214844 27.351562 L 222.308594 27.351562 L 222.308594 29.277344 L 292.214844 29.277344 L 292.214844 27.351562 " fill-opacity="1" fill-rule="nonzero"/><path fill="#000000" d="M 152.714844 27.351562 L 82.8125 27.351562 L 82.8125 29.277344 L 152.714844 29.277344 L 152.714844 27.351562 " fill-opacity="1" fill-rule="nonzero"/><path fill="#000000" d="M 303.941406 29.601562 C 304.234375 30.164062 304.464844 30.789062 304.40625 31.421875 C 304.351562 32.050781 303.941406 32.6875 303.328125 32.839844 C 302.679688 33.003906 302.007812 32.59375 301.613281 32.0625 C 301.21875 31.523438 301.027344 30.867188 300.761719 30.253906 C 299.378906 27.003906 298.277344 25.65625 294.214844 23.746094 C 297.78125 23.527344 302.304688 26.421875 303.941406 29.601562 " fill-opacity="1" fill-rule="nonzero"/><path fill="#000000" d="M 71.082031 29.601562 C 70.789062 30.164062 70.5625 30.789062 70.617188 31.421875 C 70.675781 32.050781 71.082031 32.6875 71.695312 32.839844 C 72.347656 33.003906 73.015625 32.59375 73.410156 32.0625 C 73.808594 31.523438 74 30.867188 74.261719 30.253906 C 75.644531 27.003906 76.75 25.65625 80.8125 23.746094 C 77.246094 23.527344 72.71875 26.421875 71.082031 29.601562 " fill-opacity="1" fill-rule="nonzero"/><path fill="#000000" d="M 371.253906 27.351562 L 301.347656 27.351562 L 301.347656 29.277344 L 371.253906 29.277344 L 371.253906 27.351562 " fill-opacity="1" fill-rule="nonzero"/><path fill="#000000" d="M 73.675781 27.351562 L 3.769531 27.351562 L 3.769531 29.277344 L 73.675781 29.277344 L 73.675781 27.351562 " fill-opacity="1" fill-rule="nonzero"/><path fill="#000000" d="M 187.511719 39.703125 C 187.898438 39.746094 188.261719 39.980469 188.496094 40.449219 C 188.839844 41.132812 189.242188 41.628906 189.828125 42.117188 C 190.4375 42.613281 190.378906 43.71875 189.828125 44.226562 C 189.148438 44.851562 188.5625 45.507812 188.050781 46.273438 C 187.894531 46.5 187.710938 46.664062 187.511719 46.773438 C 187.3125 46.664062 187.128906 46.5 186.976562 46.273438 C 186.460938 45.507812 185.875 44.851562 185.195312 44.226562 C 184.644531 43.71875 184.589844 42.613281 185.195312 42.117188 C 185.78125 41.628906 186.1875 41.132812 186.527344 40.449219 C 186.761719 39.980469 187.125 39.746094 187.511719 39.703125 " fill-opacity="1" fill-rule="nonzero"/><path fill="#000000" d="M 296.9375 28.953125 C 297.246094 28.996094 297.535156 29.175781 297.722656 29.550781 C 297.992188 30.097656 298.316406 30.492188 298.78125 30.878906 C 299.265625 31.277344 299.222656 32.15625 298.78125 32.558594 C 298.242188 33.058594 297.777344 33.582031 297.363281 34.191406 C 297.242188 34.371094 297.097656 34.503906 296.9375 34.59375 C 296.777344 34.503906 296.632812 34.371094 296.511719 34.191406 C 296.101562 33.582031 295.632812 33.058594 295.089844 32.558594 C 294.648438 32.15625 294.605469 31.277344 295.089844 30.878906 C 295.558594 30.492188 295.878906 30.097656 296.148438 29.550781 C 296.339844 29.175781 296.628906 28.996094 296.9375 28.953125 " fill-opacity="1" fill-rule="nonzero"/><path fill="#000000" d="M 78.085938 28.953125 C 77.78125 28.996094 77.488281 29.175781 77.304688 29.550781 C 77.03125 30.097656 76.710938 30.492188 76.242188 30.878906 C 75.757812 31.277344 75.800781 32.15625 76.242188 32.558594 C 76.785156 33.058594 77.25 33.582031 77.660156 34.191406 C 77.785156 34.371094 77.925781 34.503906 78.085938 34.59375 C 78.25 34.503906 78.390625 34.371094 78.515625 34.191406 C 78.925781 33.582031 79.390625 33.058594 79.9375 32.558594 C 80.375 32.15625 80.417969 31.277344 79.9375 30.878906 C 79.464844 30.492188 79.148438 30.097656 78.875 29.550781 C 78.6875 29.175781 78.398438 28.996094 78.085938 28.953125 " fill-opacity="1" fill-rule="nonzero"/><g clip-path="url(#9320e8aaa9)"><path fill="#000000" d="M 373.976562 28.296875 C 373.941406 28.605469 373.757812 28.890625 373.382812 29.078125 C 372.835938 29.351562 372.4375 29.671875 372.054688 30.140625 C 371.660156 30.621094 370.777344 30.582031 370.375 30.140625 C 369.875 29.601562 369.355469 29.128906 368.742188 28.722656 C 368.558594 28.601562 368.429688 28.453125 368.339844 28.296875 C 368.429688 28.132812 368.558594 27.992188 368.742188 27.871094 C 369.355469 27.457031 369.875 26.992188 370.375 26.445312 C 370.777344 26.007812 371.660156 25.964844 372.054688 26.445312 C 372.4375 26.914062 372.835938 27.234375 373.382812 27.507812 C 373.757812 27.695312 373.941406 27.988281 373.976562 28.296875 " fill-opacity="1" fill-rule="nonzero"/></g><path fill="#000000" d="M 1.046875 28.296875 C 1.082031 28.605469 1.265625 28.890625 1.644531 29.078125 C 2.1875 29.351562 2.585938 29.671875 2.96875 30.140625 C 3.367188 30.621094 4.246094 30.582031 4.648438 30.140625 C 5.148438 29.601562 5.667969 29.128906 6.285156 28.722656 C 6.464844 28.601562 6.597656 28.453125 6.683594 28.296875 C 6.597656 28.132812 6.464844 27.992188 6.285156 27.871094 C 5.667969 27.457031 5.148438 26.992188 4.648438 26.445312 C 4.246094 26.007812 3.367188 25.964844 2.96875 26.445312 C 2.585938 26.914062 2.1875 27.234375 1.644531 27.507812 C 1.265625 27.695312 1.082031 27.988281 1.046875 28.296875 " fill-opacity="1" fill-rule="nonzero"/></svg>