<svg xmlns="http://www.w3.org/2000/svg" xmlns:xlink="http://www.w3.org/1999/xlink" width="500" zoomAndPan="magnify" viewBox="0 0 375 74.999997" height="100" preserveAspectRatio="xMidYMid meet" version="1.0"><defs><clipPath id="68ddfae4af"><path d="M 142.5 24.878906 L 232.5 24.878906 L 232.5 56.613281 L 142.5 56.613281 Z M 142.5 24.878906 " clip-rule="nonzero"/></clipPath><clipPath id="307806cf18"><path d="M 181 17.34375 L 194 17.34375 L 194 35 L 181 35 Z M 181 17.34375 " clip-rule="nonzero"/></clipPath></defs><path fill="#000000" d="M 263.054688 50.722656 C 260.105469 53.6875 256.082031 55.4375 251.945312 56.019531 C 247.835938 56.601562 243.261719 55.914062 240.339844 52.957031 C 237.964844 50.554688 236.804688 46.847656 236.996094 43.507812 C 237.140625 40.9375 238.625 38.425781 240.746094 36.890625 C 244.609375 33.984375 249.746094 33.078125 254.464844 32.886719 C 259.972656 32.664062 265.554688 32.960938 271.070312 33.027344 C 276.382812 33.089844 281.785156 33.152344 287.183594 33.21875 C 330.378906 33.691406 373.570312 34.167969 373.570312 34.167969 L 373.570312 34.4375 C 373.570312 34.4375 330.378906 34.910156 287.183594 35.382812 C 281.785156 35.449219 276.382812 35.515625 271.070312 35.578125 C 263.195312 35.726562 234.699219 32.6875 239.863281 48.066406 C 243.144531 57.847656 256.578125 55.269531 263.054688 50.722656 " fill-opacity="1" fill-rule="nonzero"/><path fill="#000000" d="M 111.945312 50.722656 C 114.890625 53.6875 118.921875 55.4375 123.054688 56.019531 C 127.160156 56.601562 131.734375 55.914062 134.65625 52.957031 C 137.03125 50.554688 138.191406 46.847656 138 43.507812 C 137.855469 40.9375 136.375 38.425781 134.253906 36.890625 C 130.386719 33.984375 125.253906 33.078125 120.535156 32.886719 C 115.027344 32.664062 109.445312 32.960938 103.929688 33.027344 C 98.613281 33.089844 93.214844 33.152344 87.816406 33.21875 C 44.621094 33.691406 1.429688 34.167969 1.429688 34.167969 L 1.429688 34.4375 C 1.429688 34.4375 44.621094 34.910156 87.816406 35.382812 C 93.214844 35.449219 98.613281 35.515625 103.929688 35.578125 C 111.804688 35.726562 140.300781 32.6875 135.136719 48.066406 C 131.851562 57.847656 118.421875 55.269531 111.945312 50.722656 " fill-opacity="1" fill-rule="nonzero"/><g clip-path="url(#68ddfae4af)"><path fill="#000000" d="M 187.5 42.121094 C 187.5 42.121094 188.488281 40.839844 188.519531 40.804688 C 192.898438 35.101562 198.835938 29.84375 205.957031 27.910156 C 213.632812 25.792969 222.167969 28.265625 227.46875 34.277344 C 229.71875 36.828125 231.234375 39.835938 231.136719 43.320312 C 230.921875 50.925781 223.746094 55.734375 216.71875 55.953125 C 212.839844 56.070312 208.984375 54.988281 205.5 53.269531 C 210.027344 56.027344 215.554688 57.351562 220.722656 56.195312 C 225.886719 55.035156 230.539062 51.167969 231.980469 46.050781 C 233.496094 40.660156 231.136719 35.667969 227.453125 31.832031 C 224.667969 28.976562 221.109375 26.917969 217.273438 25.8125 C 215.355469 25.261719 213.363281 24.953125 211.351562 24.914062 C 209.363281 24.867188 207.28125 25.148438 205.414062 25.605469 C 199.570312 27.015625 194.332031 30.363281 190.257812 34.75 C 189.285156 35.800781 188.363281 36.898438 187.5 38.035156 C 186.636719 36.898438 185.714844 35.800781 184.742188 34.75 C 180.664062 30.363281 175.425781 27.015625 169.585938 25.605469 C 167.71875 25.148438 165.636719 24.867188 163.644531 24.914062 C 161.636719 24.953125 159.640625 25.261719 157.726562 25.8125 C 153.890625 26.917969 150.332031 28.976562 147.546875 31.832031 C 143.859375 35.667969 141.503906 40.660156 143.019531 46.050781 C 144.457031 51.167969 149.113281 55.035156 154.277344 56.195312 C 159.445312 57.351562 164.972656 56.027344 169.496094 53.269531 C 166.015625 54.988281 162.160156 56.070312 158.28125 55.953125 C 151.253906 55.734375 144.074219 50.925781 143.863281 43.320312 C 143.761719 39.835938 145.277344 36.828125 147.527344 34.277344 C 152.832031 28.265625 161.363281 25.792969 169.042969 27.910156 C 176.160156 29.84375 182.097656 35.101562 186.480469 40.804688 C 186.507812 40.839844 187.5 42.121094 187.5 42.121094 " fill-opacity="1" fill-rule="nonzero"/></g><path fill="#000000" d="M 190.707031 28.300781 C 193.011719 33.300781 197.179688 37.277344 201.9375 40.015625 C 207.539062 43.242188 214.042969 45.097656 220.445312 45.761719 C 221.796875 45.902344 223.171875 45.925781 224.546875 46.019531 C 225.921875 46 227.304688 46.003906 228.6875 45.9375 C 232.175781 45.667969 235.742188 45.167969 239.089844 44.113281 C 242.90625 42.914062 247.039062 40.601562 248.601562 36.675781 C 249.660156 34.003906 248.195312 31.710938 246.109375 30.125 C 244.015625 28.535156 241.558594 27.445312 239.007812 26.859375 C 236.625 26.3125 235.207031 26.140625 235.207031 26.140625 C 235.207031 26.140625 236.613281 26.011719 239.113281 26.160156 C 240.359375 26.25 241.886719 26.425781 243.609375 26.933594 C 245.324219 27.453125 247.261719 28.285156 248.863281 30.042969 C 249.710938 30.855469 250.328125 32.035156 250.695312 33.316406 C 250.972656 34.644531 250.820312 36.046875 250.367188 37.339844 C 248.90625 41.515625 244.457031 44.265625 240.511719 45.628906 C 236.800781 46.910156 232.707031 47.640625 228.792969 47.832031 C 227.363281 47.898438 225.929688 47.898438 224.503906 47.914062 C 223.082031 47.824219 221.660156 47.792969 220.257812 47.648438 C 217.457031 47.34375 214.714844 46.878906 212.113281 46.183594 C 209.511719 45.496094 207.046875 44.613281 204.800781 43.566406 C 202.542969 42.53125 200.542969 41.273438 198.765625 40.019531 C 194.992188 36.769531 192.28125 33.121094 190.707031 28.300781 " fill-opacity="1" fill-rule="nonzero"/><path fill="#000000" d="M 184.292969 28.300781 C 181.988281 33.300781 177.820312 37.277344 173.0625 40.015625 C 167.457031 43.242188 160.953125 45.097656 154.554688 45.761719 C 153.203125 45.902344 151.828125 45.925781 150.453125 46.019531 C 149.074219 46 147.691406 46.003906 146.3125 45.9375 C 142.820312 45.667969 139.253906 45.167969 135.90625 44.113281 C 132.089844 42.914062 127.957031 40.601562 126.398438 36.675781 C 125.335938 34.003906 126.804688 31.710938 128.890625 30.125 C 130.984375 28.535156 133.4375 27.445312 135.992188 26.859375 C 138.371094 26.3125 139.789062 26.140625 139.789062 26.140625 C 139.789062 26.140625 138.382812 26.011719 135.886719 26.160156 C 134.640625 26.25 133.109375 26.425781 131.390625 26.933594 C 129.671875 27.453125 127.738281 28.285156 126.132812 30.042969 C 125.285156 30.855469 124.667969 32.035156 124.304688 33.316406 C 124.027344 34.644531 124.179688 36.046875 124.628906 37.339844 C 126.09375 41.515625 130.542969 44.265625 134.488281 45.628906 C 138.195312 46.910156 142.289062 47.640625 146.203125 47.832031 C 147.632812 47.898438 149.066406 47.898438 150.496094 47.914062 C 151.914062 47.824219 153.339844 47.792969 154.742188 47.648438 C 157.539062 47.34375 160.285156 46.878906 162.886719 46.183594 C 165.488281 45.496094 167.953125 44.613281 170.195312 43.566406 C 172.457031 42.53125 174.457031 41.273438 176.234375 40.019531 C 180.003906 36.769531 182.714844 33.121094 184.292969 28.300781 " fill-opacity="1" fill-rule="nonzero"/><path fill="#000000" d="M 194.636719 40.003906 C 194.636719 40.003906 194.765625 40.210938 195.019531 40.59375 C 195.246094 40.992188 195.6875 41.5 196.230469 42.117188 C 196.816406 42.710938 197.546875 43.402344 198.523438 44.023438 C 199.488281 44.644531 200.617188 45.265625 201.851562 45.964844 C 204.367188 47.289062 207.542969 48.378906 211.023438 49.371094 C 214.503906 50.390625 218.230469 51.230469 222.050781 51.660156 C 232.042969 52.785156 242.769531 50.933594 250.863281 44.515625 C 249.363281 45.703125 248.265625 47.386719 246.683594 48.539062 C 246.1875 48.890625 245.660156 49.261719 245.105469 49.65625 C 244.53125 50.027344 243.84375 50.246094 243.179688 50.585938 C 241.8125 51.171875 240.296875 51.738281 238.644531 52.140625 C 237.007812 52.589844 235.238281 52.90625 233.40625 53.101562 C 229.734375 53.519531 225.789062 53.457031 221.894531 53.003906 C 218.011719 52.570312 214.144531 51.695312 210.648438 50.675781 C 205.101562 49.089844 199.304688 47.421875 195.828125 42.4375 C 195.351562 41.699219 195.042969 41.085938 194.890625 40.660156 C 194.726562 40.230469 194.636719 40.003906 194.636719 40.003906 " fill-opacity="1" fill-rule="nonzero"/><path fill="#000000" d="M 180.363281 40.003906 C 180.363281 40.003906 180.230469 40.210938 179.980469 40.59375 C 179.75 40.992188 179.3125 41.5 178.769531 42.117188 C 178.183594 42.710938 177.449219 43.402344 176.476562 44.023438 C 175.511719 44.644531 174.378906 45.265625 173.144531 45.964844 C 170.632812 47.289062 167.453125 48.378906 163.972656 49.371094 C 160.496094 50.390625 156.769531 51.230469 152.949219 51.660156 C 142.960938 52.785156 132.226562 50.933594 124.136719 44.515625 C 125.632812 45.703125 126.730469 47.386719 128.3125 48.539062 C 128.808594 48.890625 129.335938 49.261719 129.894531 49.65625 C 130.464844 50.027344 131.15625 50.246094 131.820312 50.585938 C 133.183594 51.171875 134.703125 51.738281 136.351562 52.140625 C 137.992188 52.589844 139.757812 52.90625 141.59375 53.101562 C 145.265625 53.519531 149.214844 53.457031 153.105469 53.003906 C 156.988281 52.570312 160.855469 51.695312 164.351562 50.675781 C 169.894531 49.089844 175.691406 47.421875 179.171875 42.4375 C 179.648438 41.699219 179.957031 41.085938 180.105469 40.660156 C 180.273438 40.230469 180.363281 40.003906 180.363281 40.003906 " fill-opacity="1" fill-rule="nonzero"/><g clip-path="url(#307806cf18)"><path fill="#000000" d="M 187.5 34.121094 C 189.640625 31.847656 193.84375 28.621094 193.566406 25.128906 C 193.476562 23.972656 193.015625 23.277344 192.128906 22.589844 C 190.074219 21.015625 188.476562 20.09375 187.535156 17.4375 C 187.527344 17.40625 187.511719 17.375 187.5 17.34375 C 187.484375 17.375 187.472656 17.40625 187.464844 17.4375 C 186.519531 20.09375 184.921875 21.015625 182.871094 22.589844 C 181.980469 23.277344 181.519531 23.972656 181.429688 25.128906 C 181.15625 28.621094 185.359375 31.847656 187.5 34.121094 " fill-opacity="1" fill-rule="nonzero"/></g><path fill="#000000" d="M 375 34.3125 C 373.363281 33.195312 371.042969 31 368.527344 31.144531 C 367.699219 31.191406 367.195312 31.433594 366.703125 31.898438 C 365.566406 32.96875 364.90625 33.800781 362.996094 34.296875 C 362.972656 34.300781 362.949219 34.304688 362.929688 34.3125 C 362.949219 34.320312 362.972656 34.328125 362.996094 34.332031 C 364.90625 34.824219 365.566406 35.660156 366.703125 36.730469 C 367.195312 37.195312 367.699219 37.433594 368.527344 37.480469 C 371.042969 37.625 373.363281 35.433594 375 34.3125 " fill-opacity="1" fill-rule="nonzero"/><path fill="#000000" d="M 0 34.3125 C 1.636719 33.195312 3.957031 31 6.472656 31.144531 C 7.300781 31.191406 7.804688 31.433594 8.296875 31.898438 C 9.429688 32.96875 10.09375 33.800781 12.003906 34.296875 C 12.027344 34.300781 12.050781 34.304688 12.070312 34.3125 C 12.050781 34.320312 12.027344 34.328125 12.003906 34.332031 C 10.09375 34.824219 9.429688 35.660156 8.296875 36.730469 C 7.804688 37.195312 7.300781 37.433594 6.472656 37.480469 C 3.957031 37.625 1.636719 35.433594 0 34.3125 " fill-opacity="1" fill-rule="nonzero"/></svg>